<?xml version="1.0" encoding="UTF-8" standalone="no"?><!DOCTYPE svg PUBLIC "-//W3C//DTD SVG 1.1//EN" "http://www.w3.org/Graphics/SVG/1.1/DTD/svg11.dtd"><svg width="100%" height="100%" viewBox="0 0 286 286" version="1.1" xmlns="http://www.w3.org/2000/svg" xmlns:xlink="http://www.w3.org/1999/xlink" xml:space="preserve" xmlns:serif="http://www.serif.com/" style="fill-rule:evenodd;clip-rule:evenodd;stroke-linejoin:round;stroke-miterlimit:2;"><rect id="Artboard1" x="0" y="0" width="285.333" height="285.333" style="fill:none;"/><path d="M96.09,78.837l-53.908,0c-18.086,0 -32.77,14.684 -32.77,32.771l-0,133.28c-0,18.087 14.684,32.771 32.77,32.771l133.281,-0c18.087,-0 32.771,-14.684 32.771,-32.771l-0,-55.574l-34.59,-0c-9.793,-0 -17.732,-7.939 -17.732,-17.732c-0,-0 -0,-42.09 0,-42.09l-42.089,0c-9.794,0 -17.733,-7.939 -17.733,-17.732l0,-32.923Zm181.049,-10.75l0,43.673l-59.822,-0l0,59.822l-43.673,-0l0,-59.822l-59.821,-0l-0,-43.673l59.821,-0l0,-59.822l43.673,0l0,59.822l59.822,-0Z"/></svg>