<?xml version="1.0" encoding="UTF-8" standalone="no"?>
<!DOCTYPE svg PUBLIC "-//W3C//DTD SVG 1.1//EN" "http://www.w3.org/Graphics/SVG/1.1/DTD/svg11.dtd">
<svg width="100%" height="100%" viewBox="0 0 60 60" version="1.1" xmlns="http://www.w3.org/2000/svg" xmlns:xlink="http://www.w3.org/1999/xlink" xml:space="preserve" xmlns:serif="http://www.serif.com/" style="fill-rule:evenodd;clip-rule:evenodd;stroke-linejoin:round;stroke-miterlimit:2;">
	<g>
		<g>
			<path d="M38.948,4.144c-0.05,0.005 -0.099,0.018 -0.145,0.037l-11.457,3.228l-0.009,-0c-0.28,0.074 -0.455,0.35 -0.4,0.631l0.164,7.294c0.007,0.231 0.16,0.432 0.383,0.503l11.684,3.846c0.148,0.051 0.311,0.038 0.448,-0.036l0.035,-0.009l-0,-0.008l11.389,-4.31l-0,0c0.215,-0.083 0.355,-0.291 0.351,-0.519l-0.165,-7.32l0,0c0.025,-0.228 -0.097,-0.446 -0.306,-0.547c-0.003,-0 -0.005,-0 -0.008,-0c-0.012,-0.006 -0.023,-0.011 -0.035,-0.016c-0.009,-0.003 -0.017,-0.006 -0.026,-0.008c-0.006,-0.003 -0.012,-0.006 -0.017,-0.008c-0.012,-0.003 -0.023,-0.006 -0.035,-0.008l-11.591,-2.722c-0.064,-0.022 -0.131,-0.032 -0.199,-0.03l-0.008,0c-0.018,0 -0.035,0 -0.052,0.002l-0.001,-0Zm0.077,1.107l9.447,2.214l-3.568,0.982l-8.855,-2.355l2.976,-0.841Zm-5.042,1.424l8.846,2.355l-3.696,1.019l-9.438,-2.172l4.288,-1.202Zm16.153,1.461l0.142,6.305l-10.405,3.938l-0.166,-7.362l4.666,-1.288l0.074,3.324c0.002,0.146 0.062,0.286 0.168,0.388c0.106,0.101 0.249,0.157 0.397,0.154c0.147,-0.004 0.288,-0.065 0.389,-0.172c0.102,-0.106 0.156,-0.248 0.15,-0.394l-0.081,-3.605l4.666,-1.288l-0,0Z" />
			<path d="M37.487,21.261c-0.042,0.005 -0.084,0.015 -0.123,0.031l-9.676,2.726l-0.007,0c-0.237,0.063 -0.384,0.296 -0.338,0.534l0.139,3.565c0.006,0.195 0.135,0.365 0.323,0.425l9.868,3.247c0.125,0.044 0.262,0.033 0.378,-0.03l0.029,-0.007l0,-0.007l9.619,-3.64l0,0c0.182,-0.07 0.3,-0.245 0.296,-0.439l-0.139,-3.587l0,0c0.021,-0.192 -0.082,-0.377 -0.258,-0.462c-0.002,-0 -0.005,-0 -0.007,0c-0.01,-0.005 -0.02,-0.009 -0.03,-0.014c-0.007,-0.002 -0.014,-0.004 -0.022,-0.006c-0.005,-0.003 -0.009,-0.005 -0.014,-0.007c-0.01,-0.003 -0.02,-0.005 -0.03,-0.007l-9.788,-2.298c-0.054,-0.019 -0.111,-0.027 -0.169,-0.026l-0.007,0.001c-0.014,-0.001 -0.029,-0 -0.043,0.001l-0.001,-0Zm0.065,0.935l7.979,1.87l-3.014,0.829l-7.478,-1.989l2.513,-0.71Zm-4.258,1.202l7.471,1.989l-3.122,0.861l-7.971,-1.834l3.622,-1.016Zm13.642,1.235l0.119,2.73l-8.787,3.326l-0.14,-3.624l3.94,-1.087l0.063,2.807c0.001,0.124 0.052,0.242 0.142,0.327c0.09,0.086 0.21,0.133 0.335,0.13c0.125,-0.002 0.243,-0.054 0.329,-0.144c0.086,-0.09 0.131,-0.21 0.127,-0.333l-0.069,-3.045l3.941,-1.088l-0,0.001Z" />
			<path d="M14.594,7.561c-0.04,0.005 -0.079,0.015 -0.115,0.029l-9.056,2.552l-0.007,-0c-0.222,0.058 -0.36,0.276 -0.316,0.499l0.13,19.438c0.005,0.183 0.126,0.342 0.302,0.398l9.236,3.039c0.116,0.041 0.245,0.031 0.354,-0.028l0.027,-0.007l-0,-0.007l9.002,-3.406l0,0c0.171,-0.066 0.281,-0.23 0.278,-0.41l-0.131,-19.459l0,0c0.02,-0.18 -0.077,-0.353 -0.241,-0.433c-0.002,0 -0.005,0 -0.007,0c-0.009,-0.004 -0.018,-0.008 -0.028,-0.012c-0.006,-0.003 -0.013,-0.005 -0.02,-0.007c-0.005,-0.002 -0.009,-0.004 -0.014,-0.006c-0.009,-0.002 -0.018,-0.004 -0.027,-0.006l-9.162,-2.152c-0.05,-0.017 -0.104,-0.025 -0.157,-0.023l-0.007,0c-0.014,-0 -0.027,0 -0.041,0.001l-0,0Zm0.061,0.875l7.467,1.75l-2.82,0.777l-7,-1.862l2.353,-0.665Zm-3.986,1.125l6.992,1.862l-2.921,0.806l-7.46,-1.717l3.389,-0.951Zm12.768,1.156l0.112,18.657l-8.225,3.112l-0.13,-19.492l3.687,-1.018l0.059,2.628c0.001,0.115 0.049,0.225 0.133,0.306c0.084,0.08 0.197,0.124 0.314,0.121c0.116,-0.002 0.227,-0.051 0.307,-0.135c0.081,-0.084 0.123,-0.196 0.119,-0.312l-0.064,-2.849l3.688,-1.018l-0,-0Z" />
		</g>
		<path d="M37.384,37.657c0.522,-0.197 0.915,-0.665 0.997,-1.246c0.108,-0.771 -0.369,-1.505 -1.118,-1.719l19.728,5.645c0.058,0.017 0.115,0.037 0.171,0.06c0.682,0.284 1.009,0.647 1.197,0.98c0.239,0.423 0.343,0.92 0.155,1.597c0,-0.002 -2.424,10.582 -2.424,10.582c-0.004,0.019 -0.009,0.038 -0.014,0.057c-0.183,0.682 -0.584,1.117 -1.034,1.373c-0.483,0.276 -1.058,0.356 -1.638,0.201c-0.023,-0.006 -0.046,-0.013 -0.069,-0.02c-4.514,-1.435 -11.698,-3.856 -15.913,-3.231c-5.463,0.861 -11.158,1.872 -16.275,2.798c-0.005,0.001 -0.009,0.001 -0.014,0.002c-4.588,0.788 -8.985,-1.141 -12.32,-3.481c-3.719,-2.608 -6.199,-5.724 -6.312,-5.867l-0.178,-0.263c-0.836,-1.446 -1.282,-2.522 -1.452,-3.389c0,-0.001 0,-0.001 0,-0.002c-0.127,-0.651 -0.118,-1.247 0.067,-1.821c0.237,-0.739 0.83,-1.392 1.507,-1.702c0.96,-0.438 1.936,-0.33 3.017,0.014c-0,-0 0,-0 0,-0c0.757,0.241 1.604,0.627 2.493,1.099c1.83,0.972 3.858,2.317 5.295,3.321c0.835,0.478 1.471,0.776 2.714,0.583l0.802,-0.125c-0.479,-0.203 -0.902,-0.411 -1.275,-0.62c0,0 0,0 0,0c-1.099,-0.617 -1.941,-1.388 -2.366,-2.084c-0.306,-0.502 -0.44,-1.003 -0.44,-1.46c0,-0.02 0,-0.039 0.001,-0.059c0.066,-1.744 1.123,-2.795 2.914,-3.119l-0,0.001l0.033,-0.007l0.061,-0.008l0,-0.001l0.016,-0.002l0.006,-0l13.524,-1.616c3.873,-0.478 4.271,-0.59 8.051,0.573c0.74,0.227 1.201,0.961 1.086,1.726c-0.086,0.573 -0.477,1.035 -0.993,1.23Zm-21.352,1.195l-0.053,0.007c-0.018,0.003 -0.036,0.007 -0.053,0.01l-0.017,0.005c0.22,0.214 0.688,0.645 1.112,0.883c1.561,0.876 4.156,1.665 8.07,2.108c0.778,0.088 1.371,0.738 1.387,1.52c0.017,0.783 -0.549,1.457 -1.322,1.577l-8.711,1.355c-2.199,0.341 -3.314,-0.133 -4.822,-1.003c-0.04,-0.023 -0.078,-0.047 -0.115,-0.073c-1.352,-0.946 -3.28,-2.232 -5.019,-3.156c-0.001,-0 -0.001,-0 -0.001,-0c-0.705,-0.375 -1.373,-0.69 -1.974,-0.881c-0.217,-0.069 -0.409,-0.189 -0.6,-0.186c0.007,0.038 0.018,0.078 0.026,0.119c0.119,0.612 0.472,1.352 1.054,2.363c0.311,0.385 2.47,2.991 5.614,5.196c2.714,1.905 6.257,3.599 9.991,2.96c5.139,-0.929 10.858,-1.944 16.344,-2.809c0.004,-0.001 0.009,-0.002 0.013,-0.002c4.275,-0.636 11.395,1.47 16.314,3.022l2.008,-8.769l-18.875,-5.401l0.001,0l-0.032,-0.008c-3.169,-0.975 -3.504,-0.859 -6.752,-0.458l-13.555,1.619l-0.033,0.002Zm21.245,-1.159l-0.022,0.006l0.022,-0.006Zm0.046,-0.014l-0.003,0.001l0.047,-0.017l-0.044,0.016Z" />
	</g>
</svg>
