<?xml version="1.0" encoding="UTF-8" standalone="no"?>
<!DOCTYPE svg PUBLIC "-//W3C//DTD SVG 1.1//EN" "http://www.w3.org/Graphics/SVG/1.1/DTD/svg11.dtd">
<svg width="100%" height="100%" viewBox="0 0 60 60" version="1.1" xmlns="http://www.w3.org/2000/svg" xmlns:xlink="http://www.w3.org/1999/xlink" xml:space="preserve" xmlns:serif="http://www.serif.com/" style="fill-rule:evenodd;clip-rule:evenodd;stroke-linejoin:round;stroke-miterlimit:2;">
	<g>
		<path d="M29.627,6.359c-0.073,0.006 -0.145,0.023 -0.214,0.05l-16.834,4.397l-0.012,0c-0.412,0.1 -0.676,0.502 -0.605,0.92l0,10.782c0.003,0.341 0.22,0.644 0.542,0.756l16.934,6.061c0.214,0.081 0.452,0.067 0.656,-0.038l0.05,-0.012l-0,-0.013l16.771,-5.997l-0,-0.001c0.317,-0.116 0.528,-0.418 0.529,-0.756l-0,-10.82l-0,0c0.043,-0.336 -0.128,-0.663 -0.429,-0.819c-0.004,-0 -0.008,-0 -0.012,0c-0.017,-0.009 -0.033,-0.017 -0.051,-0.025c-0.012,-0.005 -0.025,-0.009 -0.037,-0.013c-0.009,-0.004 -0.017,-0.008 -0.025,-0.012c-0.017,-0.005 -0.034,-0.009 -0.051,-0.013l-16.833,-4.397c-0.093,-0.035 -0.191,-0.052 -0.29,-0.051l-0.013,0c-0.025,-0.001 -0.05,-0.001 -0.075,0l-0.001,0.001Zm0.076,1.638l13.721,3.578l-5.242,1.336l-12.852,-3.768l4.373,-1.146Zm-7.409,1.94l12.839,3.767l-5.431,1.386l-13.708,-3.515l6.3,-1.638Zm23.537,2.683l-0,9.321l-15.322,5.481l0,-10.884l6.854,-1.751l0,4.914c-0.003,0.216 0.081,0.424 0.233,0.578c0.151,0.154 0.358,0.24 0.574,0.24c0.216,0 0.423,-0.086 0.574,-0.24c0.152,-0.154 0.235,-0.362 0.232,-0.578l0,-5.329l6.854,-1.752l0.001,0Z" />
		<path d="M22.012,34.657c-0.521,-0.197 -0.915,-0.665 -0.996,-1.246c-0.108,-0.771 0.368,-1.505 1.118,-1.719l-19.728,5.645c-0.058,0.017 -0.115,0.037 -0.171,0.06c-0.682,0.284 -1.009,0.647 -1.198,0.98c-0.238,0.423 -0.342,0.92 -0.154,1.597c-0,-0.002 2.424,10.582 2.424,10.582c0.004,0.019 0.009,0.038 0.014,0.057c0.183,0.682 0.583,1.117 1.034,1.373c0.482,0.276 1.058,0.356 1.638,0.201c0.023,-0.006 0.046,-0.013 0.069,-0.02c4.513,-1.435 11.698,-3.856 15.913,-3.231c5.463,0.861 11.158,1.872 16.275,2.798c0.004,0.001 0.009,0.001 0.013,0.002c4.589,0.788 8.986,-1.141 12.321,-3.481c3.719,-2.608 6.199,-5.724 6.312,-5.867l0.178,-0.263c0.836,-1.446 1.282,-2.522 1.451,-3.389c0,-0.001 0,-0.001 0.001,-0.002c0.126,-0.651 0.117,-1.247 -0.067,-1.821c-0.237,-0.739 -0.83,-1.392 -1.507,-1.702c-0.96,-0.438 -1.936,-0.33 -3.017,0.014c-0,-0 -0,-0 -0,-0c-0.758,0.241 -1.604,0.627 -2.493,1.099c-1.83,0.972 -3.858,2.317 -5.295,3.321c-0.836,0.478 -1.471,0.776 -2.715,0.583l-0.801,-0.125c0.478,-0.203 0.902,-0.411 1.274,-0.62c0,0 0,0 0,0c1.099,-0.617 1.941,-1.388 2.366,-2.084c0.307,-0.502 0.441,-1.003 0.441,-1.46c-0,-0.02 -0.001,-0.039 -0.001,-0.059c-0.066,-1.744 -1.124,-2.795 -2.914,-3.119l-0,0.001l-0.033,-0.007l-0.062,-0.008l0,-0.001l-0.015,-0.002l-0.006,-0l-13.524,-1.616c-3.873,-0.478 -4.271,-0.59 -8.051,0.573c-0.74,0.227 -1.202,0.961 -1.087,1.726c0.087,0.573 0.477,1.035 0.993,1.23Zm21.353,1.195l0.053,0.007c0.018,0.003 0.035,0.007 0.053,0.01l0.017,0.005c-0.22,0.214 -0.688,0.645 -1.113,0.883c-1.56,0.876 -4.155,1.665 -8.069,2.108c-0.778,0.088 -1.371,0.738 -1.387,1.52c-0.017,0.783 0.548,1.457 1.322,1.577l8.711,1.355c2.198,0.341 3.314,-0.133 4.822,-1.003c0.039,-0.023 0.078,-0.047 0.115,-0.073c1.352,-0.946 3.28,-2.232 5.019,-3.156c0,-0 0,-0 0.001,-0c0.705,-0.375 1.372,-0.69 1.973,-0.881c0.217,-0.069 0.41,-0.189 0.601,-0.186c-0.007,0.038 -0.018,0.078 -0.026,0.119c-0.12,0.612 -0.473,1.352 -1.055,2.363c-0.31,0.385 -2.469,2.991 -5.613,5.196c-2.715,1.905 -6.257,3.599 -9.991,2.96c-5.14,-0.929 -10.858,-1.944 -16.344,-2.809c-0.005,-0.001 -0.009,-0.002 -0.014,-0.002c-4.274,-0.636 -11.395,1.47 -16.313,3.022l-2.008,-8.769l18.875,-5.401l-0.001,0l0.031,-0.008c3.17,-0.975 3.504,-0.859 6.753,-0.458l13.555,1.619l0.033,0.002Zm-21.245,-1.159l0.022,0.006l-0.022,-0.006Zm-0.046,-0.014l0.003,0.001l-0.047,-0.017l0.044,0.016Z" />
	</g>
</svg>
