<?xml version="1.0" encoding="UTF-8" standalone="no"?>
<!DOCTYPE svg PUBLIC "-//W3C//DTD SVG 1.1//EN" "http://www.w3.org/Graphics/SVG/1.1/DTD/svg11.dtd">
<svg width="100%" height="100%" viewBox="0 0 796 800" version="1.1" xmlns="http://www.w3.org/2000/svg" xmlns:xlink="http://www.w3.org/1999/xlink" xml:space="preserve" xmlns:serif="http://www.serif.com/" style="fill-rule:evenodd;clip-rule:evenodd;stroke-linejoin:round;stroke-miterlimit:2;">
	<g id="Logo-MathTrade-Argentina" serif:id="Logo Math Trade Argentina" transform="matrix(0.371807,0,0,0.371437,0,0)">
		<rect x="0" y="0" width="2140" height="2152" style="fill:none;" />
		<g transform="matrix(1.42573,0,0,1.28439,-397.242,-189.406)">
			<g transform="matrix(0.701833,0,0,0.779838,34.1994,32.7668)">
				<circle cx="1420.09" cy="1224.51" r="1055" style="fill:rgb(46,41,78);" />
			</g>
			<g transform="matrix(0.725916,0,0,0.806597,258.426,120.99)">
				<g transform="matrix(6.12323e-17,-1,1,6.12323e-17,-4.17487,2145.56)">
					<g>
						<path d="M1385.06,476.055L1384.83,476.496L1384.49,477.607C1379.47,494.243 1370.3,517.651 1367.84,535.26C1366.92,535.085 1366.01,534.939 1365.11,534.82C1340.59,531.565 1322.44,548.148 1317.83,558.637L1317.68,558.983L1317.55,559.337C1310.84,577.634 1303.39,598.295 1293.81,618.574C1285.62,635.913 1278.79,659.435 1276.2,672.076C1275.12,677.353 1274.81,681.257 1274.93,683.051C1275.01,684.125 1275.18,685.075 1275.41,685.908C1267.14,690.511 1260.96,698.283 1258.65,709.289L1258.55,709.744L1258.49,710.206C1253.35,748.996 1251.94,816.977 1255.27,838.912C1260.11,870.69 1275.01,933.169 1285.17,960.142C1292.77,980.319 1289.91,981.646 1316.1,1019.1C1333.78,1044.39 1394.27,1127.07 1443.04,1174.09C1445.69,1176.65 1442.66,1182.76 1441.39,1186.36C1436.81,1199.28 1424.41,1220.56 1406.59,1243.59C1378.95,1279.33 1340.54,1317.29 1311.53,1328.35C1295.16,1334.6 1264.19,1359.5 1229.27,1391.86C1158,1457.91 1068.28,1554.64 1053.1,1571.1C1023.36,1580.51 790.544,1654.82 697.262,1704.41C677.855,1714.72 664.146,1724.46 658.1,1732.2C653.039,1738.69 651.846,1744.92 652.857,1750.15C659.082,1782.31 679.526,1891.74 839.103,1975.63C1064.03,2098.74 1310.72,2065.93 1530.18,1935.36L1530.27,1935.31C1798.25,1769.32 1818.43,1455.02 1819.14,1442.24C1819.14,1442.26 1840.67,1221.81 1843.5,1205.67C1845.07,1196.72 1844.32,1186.15 1846.8,1180.2C1857.47,1158.86 1887.83,1109.09 1897.63,1057.18C1901.84,1034.91 1906.75,997.158 1906.58,969.466C1906.5,956.041 1905.06,944.743 1902.33,937.769C1897.76,926.079 1856.6,846.861 1848.98,835.9C1846.25,831.965 1845.83,825.048 1845.09,818.79C1843.86,808.399 1846.28,676.884 1845.5,657.417C1845.26,651.34 1841.23,644.542 1831.35,641.017C1821.31,637.435 1802.06,636.516 1785.63,638.555C1773.5,640.062 1762.93,643.406 1757.57,647.333C1741.56,659.059 1732.34,666.935 1720.06,694.095C1713.11,709.473 1710.7,736.28 1712.09,757.789C1713.08,773.178 1716.43,784.905 1717.94,791.536C1719.87,800.048 1724.69,820.049 1729.04,837.335C1725.2,830.495 1721.64,825.034 1718.82,822.051C1707.45,810.028 1695.23,786.222 1682.88,769C1670.5,751.74 1649.49,700.539 1646.88,695.329C1644.87,691.301 1644.57,686.971 1644.07,683.195C1643.41,678.254 1643.12,646.299 1642.13,634.769C1641.6,628.556 1641.7,624.573 1641.83,622.588C1645.89,615.077 1659.32,589.835 1665.15,573.213C1673.25,550.128 1674.95,506.417 1640.12,487.382C1620.61,476.72 1608.65,478.184 1601.85,480.849C1594.23,483.831 1590.66,489.12 1589.21,491.99C1583.75,499.483 1552.43,542.742 1543.45,561.955C1530.88,588.872 1533.32,579.876 1526.39,613.238C1520.12,643.407 1519.96,686.866 1519.47,707.027C1517.02,702.842 1515.72,700.022 1515.72,700.022L1515.53,699.601L1515.3,699.195C1515.3,699.195 1504.36,679.734 1501.66,664.356C1499.4,651.565 1496.18,611.647 1497.13,593.045C1508.82,513.041 1484.63,475.921 1448.03,456.331L1447.62,456.11L1447.19,455.921C1425.66,446.438 1412.05,448.021 1403.48,452.053C1391.47,457.696 1385.85,473.62 1385.06,476.055ZM1481.05,854.334L1481.05,854.335L1481.05,854.335L1481.05,854.334L1481.05,854.334Z" style="fill:rgb(46,41,78);" />
						<path d="M1833.24,657.905C1834.02,677.487 1831.66,809.786 1832.9,820.238C1833.9,828.6 1835.25,837.647 1838.9,842.905C1846.34,853.592 1886.45,930.841 1890.9,942.238C1898.73,962.238 1891.42,1023.94 1885.57,1054.9C1874.44,1113.88 1843.01,1172.84 1812.24,1202.57C1818.34,1204.78 1825.36,1203.75 1833.24,1199.74L1806.9,1441.26C1806.9,1441.26 1791.9,1758.82 1523.9,1924.82C1308.27,2053.11 1065.9,2085.82 844.905,1964.82C691.035,1883.96 670.905,1778.82 664.905,1747.82C657.189,1707.95 1059.9,1581.82 1059.9,1581.82C1059.9,1581.82 1263.77,1359.7 1315.9,1339.82C1366.77,1320.42 1446.18,1223.68 1452.32,1187.23C1452.32,1187.23 1475.3,1207.76 1502.9,1198.32C1462.33,1199.27 1351.12,1047.77 1326.15,1012.07C1301.17,976.335 1303.9,975.067 1296.65,955.817C1286.7,929.397 1272.14,868.193 1267.4,837.067C1264.16,815.721 1265.65,749.567 1270.65,711.817C1275.65,688.068 1305.65,688.067 1326.65,704.067C1347.65,720.067 1357.9,749.067 1357.15,769.317C1357.16,784.653 1356,827.188 1376.4,880.567C1382.62,896.831 1385.9,903.275 1391.15,907.317C1394.25,910.239 1400.74,907.384 1407.9,904.817C1419.86,900.539 1436.99,896.45 1437.9,896.817C1423.01,891.397 1408.47,889.57 1394.24,890.817C1385.64,880.114 1379.45,867.842 1376.24,854.817C1371.96,837.483 1368.27,801.151 1368.57,786.817C1368.9,753.07 1362.96,729.881 1346.24,708.817C1327.35,685.02 1289.07,680.724 1287.49,682.983C1285.37,682.748 1293.81,647.297 1304.9,623.817C1314.65,603.188 1322.24,582.178 1329.07,563.567C1334.61,550.948 1368.15,527.803 1402.9,575.15C1416.49,593.662 1411.15,644.233 1404.82,679.9C1400.49,705.567 1401.74,717.233 1404.74,725.233C1407.74,733.233 1431.77,790.595 1441.9,808.817C1452.57,827.996 1482.56,857.594 1482.9,855.15C1484.03,853.27 1533.62,843.499 1543.24,842.817C1543.24,842.817 1513.57,836.483 1500.9,838.483C1484.24,840.483 1473.9,832.483 1467.9,824.15C1461.9,815.817 1443.57,788.483 1443.57,788.483C1443.57,788.483 1434.57,773.15 1433.57,767.817C1432.57,762.483 1413.49,717.567 1413.49,712.9C1413.49,708.233 1412.57,697.483 1417.57,680.817C1422.57,664.15 1419.49,598.563 1418.9,589.483C1417.9,573.843 1397.32,551.541 1379.49,542.733C1379.82,525.685 1390.78,499.247 1396.24,481.15C1398.12,477.555 1400.82,448.9 1442.24,467.15C1475.4,484.9 1495.65,519.145 1484.9,591.817C1483.82,610.9 1487.21,653.062 1489.57,666.483C1492.57,683.529 1504.57,705.15 1504.57,705.15C1504.57,705.15 1512.24,721.817 1525.57,735.483C1538.9,749.15 1561.9,784.483 1575.57,808.483C1589.24,832.483 1596.9,833.483 1596.9,833.483L1628.24,826.817L1601.9,818.483C1601.9,818.483 1555.57,755.817 1545.24,746.817C1534.9,737.817 1530.9,729.15 1531.57,712.817C1532.24,696.483 1531.65,648.233 1538.4,615.733C1544.97,584.128 1542.65,592.65 1554.57,567.15C1564.14,546.675 1599.9,498.15 1599.9,498.15C1599.9,498.15 1605.57,482.483 1634.24,498.15C1662.9,513.817 1660.24,550.15 1653.57,569.15C1646.9,588.15 1629.9,618.817 1629.9,618.817C1629.9,618.817 1628.9,624.15 1629.9,635.817C1630.9,647.483 1631.24,679.817 1631.9,684.817C1632.57,689.817 1633.24,695.483 1635.9,700.817C1638.57,706.15 1660.24,758.483 1672.9,776.15C1685.57,793.817 1698.24,818.15 1709.9,830.483C1721.57,842.817 1745.57,902.817 1751.24,911.15C1756.9,919.483 1798.57,916.15 1821.57,933.483C1844.57,950.817 1800.24,906.817 1768.24,902.817C1736.24,898.817 1751.24,870.817 1748.24,861.817C1745.24,852.817 1733.24,803.483 1729.9,788.817C1728.48,782.563 1725.27,771.512 1724.33,756.999C1723.07,737.478 1724.93,713.107 1731.24,699.15C1742.24,674.817 1750.48,667.739 1764.82,657.233C1778.07,647.529 1832.79,646.631 1833.24,657.905ZM1664.4,1176.65C1674.03,1120.94 1661.12,1077.25 1617.4,1049.98L1625.74,1042.65C1683.61,1075.16 1693.51,1147.04 1664.4,1176.65Z" style="fill:white;" />
					</g>
					<g>
						<g transform="matrix(6.12323e-17,1,-1,6.12323e-17,2145.56,4.17487)">
							<path d="M857.842,343.877C861.663,340.501 866.987,339.405 871.83,340.997C898.807,349.862 987.81,379.109 1014.88,388.004C1019.76,389.606 1023.41,393.69 1024.45,398.714C1030.31,426.782 1049.64,519.517 1055.49,547.568C1056.53,552.586 1054.82,557.782 1051,561.199C1029.65,580.297 959.093,643.412 937.758,662.496C933.942,665.91 928.598,667.033 923.731,665.444C896.619,656.596 807.202,627.413 779.959,618.521C775.046,616.918 771.374,612.798 770.344,607.734C764.586,579.425 745.569,485.933 739.831,457.723C738.807,452.693 740.547,447.5 744.394,444.101C765.826,425.167 836.484,362.745 857.842,343.877Z" style="fill:rgb(46,41,78);" />
						</g>
						<g transform="matrix(6.12323e-17,1,-1,6.12323e-17,2145.56,4.17487)">
							<path d="M981.51,541.844L927.677,651.677L826.177,572.677L981.51,541.844ZM814.177,577.344L788.344,607.177L899.51,643.677L814.177,577.344ZM1038.51,556.344L995.01,541.01L947.51,636.677L1038.51,556.344ZM758.01,485.677L780.677,598.844L807.01,568.677L758.01,485.677ZM980.844,530.01L872.844,411.344L822.344,562.844L980.844,530.01ZM753.677,455.844L812.01,555.677L859.51,409.677L753.677,455.844ZM998.344,529.844L1042.84,544.344L1017.84,425.01L998.344,529.844ZM1011.01,402.177L988.177,522.01L882.177,404.677L1011.01,402.177ZM863.677,396.01L860.177,357.677L775.177,434.177L863.677,396.01ZM871.844,355.51L875.177,393.51L980.01,391.344L871.844,355.51Z" style="fill:rgb(255,199,0);" />
						</g>
					</g>
				</g>
				<g>
					<g>
						<path d="M1385.06,476.055L1384.83,476.496L1384.49,477.607C1379.47,494.243 1370.3,517.651 1367.84,535.26C1366.92,535.085 1366.01,534.939 1365.11,534.82C1340.59,531.565 1322.44,548.148 1317.83,558.637L1317.68,558.983L1317.55,559.337C1310.84,577.634 1303.39,598.295 1293.81,618.574C1285.62,635.913 1278.79,659.435 1276.2,672.076C1275.12,677.353 1274.81,681.257 1274.93,683.051C1275.01,684.125 1275.18,685.075 1275.41,685.908C1267.14,690.511 1260.96,698.283 1258.65,709.289L1258.55,709.744L1258.49,710.206C1253.35,748.996 1251.94,816.977 1255.27,838.912C1260.11,870.69 1275.01,933.169 1285.17,960.142C1292.77,980.319 1289.91,981.646 1316.1,1019.1C1333.78,1044.39 1394.27,1127.07 1443.04,1174.09C1445.69,1176.65 1442.66,1182.76 1441.39,1186.36C1436.81,1199.28 1424.41,1220.56 1406.59,1243.59C1378.95,1279.33 1340.54,1317.29 1311.53,1328.35C1295.16,1334.6 1264.19,1359.5 1229.27,1391.86C1158,1457.91 1068.28,1554.64 1053.1,1571.1C1023.36,1580.51 790.544,1654.82 697.262,1704.41C677.855,1714.72 664.146,1724.46 658.1,1732.2C653.039,1738.69 651.846,1744.92 652.857,1750.15C659.082,1782.31 679.526,1891.74 839.103,1975.63C1064.03,2098.74 1310.72,2065.93 1530.18,1935.36L1530.27,1935.31C1798.25,1769.32 1818.43,1455.02 1819.14,1442.24C1819.14,1442.26 1840.67,1221.81 1843.5,1205.67C1845.07,1196.72 1844.32,1186.15 1846.8,1180.2C1857.47,1158.86 1887.83,1109.09 1897.63,1057.18C1901.84,1034.91 1906.75,997.158 1906.58,969.466C1906.5,956.041 1905.06,944.743 1902.33,937.769C1897.76,926.079 1856.6,846.861 1848.98,835.9C1846.25,831.965 1845.83,825.048 1845.09,818.79C1843.86,808.399 1846.28,676.884 1845.5,657.417C1845.26,651.34 1841.23,644.542 1831.35,641.017C1821.31,637.435 1802.06,636.516 1785.63,638.555C1773.5,640.062 1762.93,643.406 1757.57,647.333C1741.56,659.059 1732.34,666.935 1720.06,694.095C1713.11,709.473 1710.7,736.28 1712.09,757.789C1713.08,773.178 1716.43,784.905 1717.94,791.536C1719.87,800.048 1724.69,820.049 1729.04,837.335C1725.2,830.495 1721.64,825.034 1718.82,822.051C1707.45,810.028 1695.23,786.222 1682.88,769C1670.5,751.74 1649.49,700.539 1646.88,695.329C1644.87,691.301 1644.57,686.971 1644.07,683.195C1643.41,678.254 1643.12,646.299 1642.13,634.769C1641.6,628.556 1641.7,624.573 1641.83,622.588C1645.89,615.077 1659.32,589.835 1665.15,573.213C1673.25,550.128 1674.95,506.417 1640.12,487.382C1620.61,476.72 1608.65,478.184 1601.85,480.849C1594.23,483.831 1590.66,489.12 1589.21,491.99C1583.75,499.483 1552.43,542.742 1543.45,561.955C1530.88,588.872 1533.32,579.876 1526.39,613.238C1520.12,643.407 1519.96,686.866 1519.47,707.027C1517.02,702.842 1515.72,700.022 1515.72,700.022L1515.53,699.601L1515.3,699.195C1515.3,699.195 1504.36,679.734 1501.66,664.356C1499.4,651.565 1496.18,611.647 1497.13,593.045C1508.82,513.041 1484.63,475.921 1448.03,456.331L1447.62,456.11L1447.19,455.921C1425.66,446.438 1412.05,448.021 1403.48,452.053C1391.47,457.696 1385.85,473.62 1385.06,476.055ZM1481.05,854.334L1481.05,854.335L1481.05,854.335L1481.05,854.334L1481.05,854.334Z" style="fill:rgb(46,41,78);" />
						<path d="M1833.24,657.905C1834.02,677.487 1831.66,809.786 1832.9,820.238C1833.9,828.6 1835.25,837.647 1838.9,842.905C1846.34,853.592 1886.45,930.841 1890.9,942.238C1898.73,962.238 1891.42,1023.94 1885.57,1054.9C1874.44,1113.88 1843.01,1172.84 1812.24,1202.57C1818.34,1204.78 1825.36,1203.75 1833.24,1199.74L1806.9,1441.26C1806.9,1441.26 1791.9,1758.82 1523.9,1924.82C1308.27,2053.11 1065.9,2085.82 844.905,1964.82C691.035,1883.96 670.905,1778.82 664.905,1747.82C657.189,1707.95 1059.9,1581.82 1059.9,1581.82C1059.9,1581.82 1263.77,1359.7 1315.9,1339.82C1366.77,1320.42 1446.18,1223.68 1452.32,1187.23C1452.32,1187.23 1475.3,1207.76 1502.9,1198.32C1462.33,1199.27 1351.12,1047.77 1326.15,1012.07C1301.17,976.335 1303.9,975.067 1296.65,955.817C1286.7,929.397 1272.14,868.193 1267.4,837.067C1264.16,815.721 1265.65,749.567 1270.65,711.817C1275.65,688.068 1305.65,688.067 1326.65,704.067C1347.65,720.067 1357.9,749.067 1357.15,769.317C1357.16,784.653 1356,827.188 1376.4,880.567C1382.62,896.831 1385.9,903.275 1391.15,907.317C1394.25,910.239 1400.74,907.384 1407.9,904.817C1419.86,900.539 1436.99,896.45 1437.9,896.817C1423.01,891.397 1408.47,889.57 1394.24,890.817C1385.64,880.114 1379.45,867.842 1376.24,854.817C1371.96,837.483 1368.27,801.151 1368.57,786.817C1368.9,753.07 1362.96,729.881 1346.24,708.817C1327.35,685.02 1289.07,680.724 1287.49,682.983C1285.37,682.748 1293.81,647.297 1304.9,623.817C1314.65,603.188 1322.24,582.178 1329.07,563.567C1334.61,550.948 1368.15,527.803 1402.9,575.15C1416.49,593.662 1411.15,644.233 1404.82,679.9C1400.49,705.567 1401.74,717.233 1404.74,725.233C1407.74,733.233 1431.77,790.595 1441.9,808.817C1452.57,827.996 1482.56,857.594 1482.9,855.15C1484.03,853.27 1533.62,843.499 1543.24,842.817C1543.24,842.817 1513.57,836.483 1500.9,838.483C1484.24,840.483 1473.9,832.483 1467.9,824.15C1461.9,815.817 1443.57,788.483 1443.57,788.483C1443.57,788.483 1434.57,773.15 1433.57,767.817C1432.57,762.483 1413.49,717.567 1413.49,712.9C1413.49,708.233 1412.57,697.483 1417.57,680.817C1422.57,664.15 1419.49,598.563 1418.9,589.483C1417.9,573.843 1397.32,551.541 1379.49,542.733C1379.82,525.685 1390.78,499.247 1396.24,481.15C1398.12,477.555 1400.82,448.9 1442.24,467.15C1475.4,484.9 1495.65,519.145 1484.9,591.817C1483.82,610.9 1487.21,653.062 1489.57,666.483C1492.57,683.529 1504.57,705.15 1504.57,705.15C1504.57,705.15 1512.24,721.817 1525.57,735.483C1538.9,749.15 1561.9,784.483 1575.57,808.483C1589.24,832.483 1596.9,833.483 1596.9,833.483L1628.24,826.817L1601.9,818.483C1601.9,818.483 1555.57,755.817 1545.24,746.817C1534.9,737.817 1530.9,729.15 1531.57,712.817C1532.24,696.483 1531.65,648.233 1538.4,615.733C1544.97,584.128 1542.65,592.65 1554.57,567.15C1564.14,546.675 1599.9,498.15 1599.9,498.15C1599.9,498.15 1605.57,482.483 1634.24,498.15C1662.9,513.817 1660.24,550.15 1653.57,569.15C1646.9,588.15 1629.9,618.817 1629.9,618.817C1629.9,618.817 1628.9,624.15 1629.9,635.817C1630.9,647.483 1631.24,679.817 1631.9,684.817C1632.57,689.817 1633.24,695.483 1635.9,700.817C1638.57,706.15 1660.24,758.483 1672.9,776.15C1685.57,793.817 1698.24,818.15 1709.9,830.483C1721.57,842.817 1745.57,902.817 1751.24,911.15C1756.9,919.483 1798.57,916.15 1821.57,933.483C1844.57,950.817 1800.24,906.817 1768.24,902.817C1736.24,898.817 1751.24,870.817 1748.24,861.817C1745.24,852.817 1733.24,803.483 1729.9,788.817C1728.48,782.563 1725.27,771.512 1724.33,756.999C1723.07,737.478 1724.93,713.107 1731.24,699.15C1742.24,674.817 1750.48,667.739 1764.82,657.233C1778.07,647.529 1832.79,646.631 1833.24,657.905ZM1664.4,1176.65C1674.03,1120.94 1661.12,1077.25 1617.4,1049.98L1625.74,1042.65C1683.61,1075.16 1693.51,1147.04 1664.4,1176.65Z" style="fill:rgb(108,191,227);" />
					</g>
					<g>
						<path d="M1568.04,840.024C1567.64,842.045 1567.73,844.485 1568.77,847.35C1569.73,850.003 1575.02,858.809 1581.25,868.849C1581.05,868.867 1580.86,868.878 1580.67,868.881C1573.99,868.999 1509.92,870.549 1509.92,870.549C1505.73,870.651 1501.88,872.886 1499.71,876.477C1489.48,893.442 1479.05,910.475 1469.83,927.099C1466.66,930.161 1466.3,934.003 1466.54,936.929C1466.76,939.547 1484.14,974.919 1485.34,977.596C1486.84,980.928 1487.76,983.383 1492.71,986.515C1494.89,987.902 1502.32,990.362 1512.34,992.329C1531.99,996.187 1562.87,999.748 1573.62,997.913C1574.42,997.776 1575.33,997.658 1576.32,997.558C1576.25,998.218 1576.05,998.852 1576.19,999.396C1580.42,1015.08 1592.48,1036.57 1594.48,1039.78C1603.91,1054.93 1609.23,1066.5 1625.49,1067.65C1634.12,1068.26 1643.27,1066.57 1649.31,1064.17C1653.31,1062.58 1656.27,1060.52 1658.05,1058.67C1661.2,1055.4 1692.44,1025.36 1704.84,1015.28C1708.45,1017.51 1714.19,1020.57 1720.29,1022.6C1728.73,1025.41 1743.43,1028.36 1758.29,1025.14C1774.72,1021.59 1794.32,1006.77 1796.45,980.673C1797.76,964.631 1790.31,950.881 1784.89,942.302C1783.68,940.399 1769.53,914.754 1763.74,905.815C1767.58,890.571 1772.21,871.073 1772.16,861.417C1772.09,848.116 1768.83,844.322 1766.87,840.71C1766.6,840.229 1755.24,819.075 1752.41,813.929C1745.99,802.277 1743.86,796.334 1733.04,790.293C1721.01,783.574 1706.38,783.93 1695.66,795.614C1693.38,798.092 1677.7,814.643 1671.42,820.556C1662.9,812.31 1656.39,801.092 1643.86,781.38C1633.12,764.468 1600.21,739.637 1600.21,739.637C1597.55,737.655 1594.19,736.838 1590.91,737.372C1587.64,737.906 1584.72,739.746 1582.82,742.472C1570.74,759.821 1560.29,777.17 1551.06,794.518C1549.09,796.657 1546.35,801.024 1548.77,807.683C1550.07,811.269 1559.27,826.1 1568.04,840.024ZM1576.89,854.194L1576.91,854.197L1576.89,854.191L1576.89,854.194ZM1574.56,853.19C1575.23,853.567 1575.93,853.876 1576.65,854.116C1576.23,853.978 1575.78,853.804 1575.32,853.585C1575.07,853.467 1574.81,853.337 1574.56,853.19C1574.33,853.063 1574.11,852.928 1573.89,852.786L1574.56,853.19ZM1556.89,814.527L1556.91,814.53L1556.89,814.525L1556.89,814.527ZM1554.56,813.524C1555.23,813.9 1555.93,814.21 1556.65,814.45C1556.23,814.312 1555.78,814.137 1555.32,813.918C1555.07,813.8 1554.81,813.67 1554.56,813.524C1554.33,813.397 1554.11,813.262 1553.89,813.119L1554.56,813.524Z" style="fill:rgb(46,41,78);" />
						<path d="M1682.22,962.484C1677.59,963.806 1633.08,1006.49 1629.22,1010.48C1623.28,1016.63 1587.78,1021.94 1588.46,999.769C1588.77,989.563 1597.98,961.198 1598.98,957.198C1599.98,953.198 1597.51,950.15 1591.17,947.817C1584.84,945.484 1561.42,944.466 1551.55,946.15C1535.72,948.853 1472.86,938.066 1479.22,935.484C1488.68,918.218 1499.56,900.481 1510.22,882.817C1510.22,882.817 1574.21,881.268 1580.89,881.15C1593.15,880.934 1603.23,874.414 1594.89,859.817C1590.36,851.883 1556.05,799.903 1560.55,802.817C1569.88,785.039 1580.51,767.261 1592.89,749.484C1592.89,749.484 1623.56,772.294 1633.51,787.96C1648.34,811.308 1655.55,823.341 1666.27,832.436C1670.97,836.476 1672.93,834.865 1676.27,832.531C1679.6,830.198 1701.87,806.989 1704.7,803.912C1717.51,789.958 1739.79,804.15 1739.89,821.817C1739.97,837.487 1727.22,879.626 1726.55,885.293C1725.89,890.96 1724.08,895.674 1727.08,897.007C1730.08,898.341 1766.64,910.346 1764.22,940.007C1762.62,959.597 1748.03,970.817 1735.7,973.484C1723.36,976.15 1711.17,973.626 1704.17,971.293C1697.17,968.96 1690.72,965.056 1689.22,963.817C1686.29,961.394 1682.22,962.484 1682.22,962.484Z" style="fill:rgb(255,199,0);" />
					</g>
				</g>
			</g>
			<g transform="matrix(-0.725916,-9.87796e-17,8.88991e-17,-0.806597,1811.96,1856.43)">
				<g transform="matrix(6.12323e-17,-1,1,6.12323e-17,-4.17487,2145.56)">
					<g>
						<path d="M1385.06,476.055L1384.83,476.496L1384.49,477.607C1379.47,494.243 1370.3,517.651 1367.84,535.26C1366.92,535.085 1366.01,534.939 1365.11,534.82C1340.59,531.565 1322.44,548.148 1317.83,558.637L1317.68,558.983L1317.55,559.337C1310.84,577.634 1303.39,598.295 1293.81,618.574C1285.62,635.913 1278.79,659.435 1276.2,672.076C1275.12,677.353 1274.81,681.257 1274.93,683.051C1275.01,684.125 1275.18,685.075 1275.41,685.908C1267.14,690.511 1260.96,698.283 1258.65,709.289L1258.55,709.744L1258.49,710.206C1253.35,748.996 1251.94,816.977 1255.27,838.912C1260.11,870.69 1275.01,933.169 1285.17,960.142C1292.77,980.319 1289.91,981.646 1316.1,1019.1C1333.78,1044.39 1394.27,1127.07 1443.04,1174.09C1445.69,1176.65 1442.66,1182.76 1441.39,1186.36C1436.81,1199.28 1424.41,1220.56 1406.59,1243.59C1378.95,1279.33 1340.54,1317.29 1311.53,1328.35C1295.16,1334.6 1264.19,1359.5 1229.27,1391.86C1158,1457.91 1068.28,1554.64 1053.1,1571.1C1023.36,1580.51 790.544,1654.82 697.262,1704.41C677.855,1714.72 664.146,1724.46 658.1,1732.2C653.039,1738.69 651.846,1744.92 652.857,1750.15C659.082,1782.31 679.526,1891.74 839.103,1975.63C1064.03,2098.74 1310.72,2065.93 1530.18,1935.36L1530.27,1935.31C1798.25,1769.32 1818.43,1455.02 1819.14,1442.24C1819.14,1442.26 1840.67,1221.81 1843.5,1205.67C1845.07,1196.72 1844.32,1186.15 1846.8,1180.2C1857.47,1158.86 1887.83,1109.09 1897.63,1057.18C1901.84,1034.91 1906.75,997.158 1906.58,969.466C1906.5,956.041 1905.06,944.743 1902.33,937.769C1897.76,926.079 1856.6,846.861 1848.98,835.9C1846.25,831.965 1845.83,825.048 1845.09,818.79C1843.86,808.399 1846.28,676.884 1845.5,657.417C1845.26,651.34 1841.23,644.542 1831.35,641.017C1821.31,637.435 1802.06,636.516 1785.63,638.555C1773.5,640.062 1762.93,643.406 1757.57,647.333C1741.56,659.059 1732.34,666.935 1720.06,694.095C1713.11,709.473 1710.7,736.28 1712.09,757.789C1713.08,773.178 1716.43,784.905 1717.94,791.536C1719.87,800.048 1724.69,820.049 1729.04,837.335C1725.2,830.495 1721.64,825.034 1718.82,822.051C1707.45,810.028 1695.23,786.222 1682.88,769C1670.5,751.74 1649.49,700.539 1646.88,695.329C1644.87,691.301 1644.57,686.971 1644.07,683.195C1643.41,678.254 1643.12,646.299 1642.13,634.769C1641.6,628.556 1641.7,624.573 1641.83,622.588C1645.89,615.077 1659.32,589.835 1665.15,573.213C1673.25,550.128 1674.95,506.417 1640.12,487.382C1620.61,476.72 1608.65,478.184 1601.85,480.849C1594.23,483.831 1590.66,489.12 1589.21,491.99C1583.75,499.483 1552.43,542.742 1543.45,561.955C1530.88,588.872 1533.32,579.876 1526.39,613.238C1520.12,643.407 1519.96,686.866 1519.47,707.027C1517.02,702.842 1515.72,700.022 1515.72,700.022L1515.53,699.601L1515.3,699.195C1515.3,699.195 1504.36,679.734 1501.66,664.356C1499.4,651.565 1496.18,611.647 1497.13,593.045C1508.82,513.041 1484.63,475.921 1448.03,456.331L1447.62,456.11L1447.19,455.921C1425.66,446.438 1412.05,448.021 1403.48,452.053C1391.47,457.696 1385.85,473.62 1385.06,476.055ZM1481.05,854.334L1481.05,854.335L1481.05,854.335L1481.05,854.334L1481.05,854.334Z" style="fill:rgb(46,41,78);" />
						<path d="M1833.24,657.905C1834.02,677.487 1831.66,809.786 1832.9,820.238C1833.9,828.6 1835.25,837.647 1838.9,842.905C1846.34,853.592 1886.45,930.841 1890.9,942.238C1898.73,962.238 1891.42,1023.94 1885.57,1054.9C1874.44,1113.88 1843.01,1172.84 1812.24,1202.57C1818.34,1204.78 1825.36,1203.75 1833.24,1199.74L1806.9,1441.26C1806.9,1441.26 1791.9,1758.82 1523.9,1924.82C1308.27,2053.11 1065.9,2085.82 844.905,1964.82C691.035,1883.96 670.905,1778.82 664.905,1747.82C657.189,1707.95 1059.9,1581.82 1059.9,1581.82C1059.9,1581.82 1263.77,1359.7 1315.9,1339.82C1366.77,1320.42 1446.18,1223.68 1452.32,1187.23C1452.32,1187.23 1475.3,1207.76 1502.9,1198.32C1462.33,1199.27 1351.12,1047.77 1326.15,1012.07C1301.17,976.335 1303.9,975.067 1296.65,955.817C1286.7,929.397 1272.14,868.193 1267.4,837.067C1264.16,815.721 1265.65,749.567 1270.65,711.817C1275.65,688.068 1305.65,688.067 1326.65,704.067C1347.65,720.067 1357.9,749.067 1357.15,769.317C1357.16,784.653 1356,827.188 1376.4,880.567C1382.62,896.831 1385.9,903.275 1391.15,907.317C1394.25,910.239 1400.74,907.384 1407.9,904.817C1419.86,900.539 1436.99,896.45 1437.9,896.817C1423.01,891.397 1408.47,889.57 1394.24,890.817C1385.64,880.114 1379.45,867.842 1376.24,854.817C1371.96,837.483 1368.27,801.151 1368.57,786.817C1368.9,753.07 1362.96,729.881 1346.24,708.817C1327.35,685.02 1289.07,680.724 1287.49,682.983C1285.37,682.748 1293.81,647.297 1304.9,623.817C1314.65,603.188 1322.24,582.178 1329.07,563.567C1334.61,550.948 1368.15,527.803 1402.9,575.15C1416.49,593.662 1411.15,644.233 1404.82,679.9C1400.49,705.567 1401.74,717.233 1404.74,725.233C1407.74,733.233 1431.77,790.595 1441.9,808.817C1452.57,827.996 1482.56,857.594 1482.9,855.15C1484.03,853.27 1533.62,843.499 1543.24,842.817C1543.24,842.817 1513.57,836.483 1500.9,838.483C1484.24,840.483 1473.9,832.483 1467.9,824.15C1461.9,815.817 1443.57,788.483 1443.57,788.483C1443.57,788.483 1434.57,773.15 1433.57,767.817C1432.57,762.483 1413.49,717.567 1413.49,712.9C1413.49,708.233 1412.57,697.483 1417.57,680.817C1422.57,664.15 1419.49,598.563 1418.9,589.483C1417.9,573.843 1397.32,551.541 1379.49,542.733C1379.82,525.685 1390.78,499.247 1396.24,481.15C1398.12,477.555 1400.82,448.9 1442.24,467.15C1475.4,484.9 1495.65,519.145 1484.9,591.817C1483.82,610.9 1487.21,653.062 1489.57,666.483C1492.57,683.529 1504.57,705.15 1504.57,705.15C1504.57,705.15 1512.24,721.817 1525.57,735.483C1538.9,749.15 1561.9,784.483 1575.57,808.483C1589.24,832.483 1596.9,833.483 1596.9,833.483L1628.24,826.817L1601.9,818.483C1601.9,818.483 1555.57,755.817 1545.24,746.817C1534.9,737.817 1530.9,729.15 1531.57,712.817C1532.24,696.483 1531.65,648.233 1538.4,615.733C1544.97,584.128 1542.65,592.65 1554.57,567.15C1564.14,546.675 1599.9,498.15 1599.9,498.15C1599.9,498.15 1605.57,482.483 1634.24,498.15C1662.9,513.817 1660.24,550.15 1653.57,569.15C1646.9,588.15 1629.9,618.817 1629.9,618.817C1629.9,618.817 1628.9,624.15 1629.9,635.817C1630.9,647.483 1631.24,679.817 1631.9,684.817C1632.57,689.817 1633.24,695.483 1635.9,700.817C1638.57,706.15 1660.24,758.483 1672.9,776.15C1685.57,793.817 1698.24,818.15 1709.9,830.483C1721.57,842.817 1745.57,902.817 1751.24,911.15C1756.9,919.483 1798.57,916.15 1821.57,933.483C1844.57,950.817 1800.24,906.817 1768.24,902.817C1736.24,898.817 1751.24,870.817 1748.24,861.817C1745.24,852.817 1733.24,803.483 1729.9,788.817C1728.48,782.563 1725.27,771.512 1724.33,756.999C1723.07,737.478 1724.93,713.107 1731.24,699.15C1742.24,674.817 1750.48,667.739 1764.82,657.233C1778.07,647.529 1832.79,646.631 1833.24,657.905ZM1664.4,1176.65C1674.03,1120.94 1661.12,1077.25 1617.4,1049.98L1625.74,1042.65C1683.61,1075.16 1693.51,1147.04 1664.4,1176.65Z" style="fill:white;" />
					</g>
					<g>
						<g transform="matrix(6.12323e-17,1,-1,6.12323e-17,2145.56,4.17487)">
							<path d="M857.842,343.877C861.663,340.501 866.987,339.405 871.83,340.997C898.807,349.862 987.81,379.109 1014.88,388.004C1019.76,389.606 1023.41,393.69 1024.45,398.714C1030.31,426.782 1049.64,519.517 1055.49,547.568C1056.53,552.586 1054.82,557.782 1051,561.199C1029.65,580.297 959.093,643.412 937.758,662.496C933.942,665.91 928.598,667.033 923.731,665.444C896.619,656.596 807.202,627.413 779.959,618.521C775.046,616.918 771.374,612.798 770.344,607.734C764.586,579.425 745.569,485.933 739.831,457.723C738.807,452.693 740.547,447.5 744.394,444.101C765.826,425.167 836.484,362.745 857.842,343.877Z" style="fill:rgb(46,41,78);" />
						</g>
						<g transform="matrix(6.12323e-17,1,-1,6.12323e-17,2145.56,4.17487)">
							<path d="M981.51,541.844L927.677,651.677L826.177,572.677L981.51,541.844ZM814.177,577.344L788.344,607.177L899.51,643.677L814.177,577.344ZM1038.51,556.344L995.01,541.01L947.51,636.677L1038.51,556.344ZM758.01,485.677L780.677,598.844L807.01,568.677L758.01,485.677ZM980.844,530.01L872.844,411.344L822.344,562.844L980.844,530.01ZM753.677,455.844L812.01,555.677L859.51,409.677L753.677,455.844ZM998.344,529.844L1042.84,544.344L1017.84,425.01L998.344,529.844ZM1011.01,402.177L988.177,522.01L882.177,404.677L1011.01,402.177ZM863.677,396.01L860.177,357.677L775.177,434.177L863.677,396.01ZM871.844,355.51L875.177,393.51L980.01,391.344L871.844,355.51Z" style="fill:rgb(255,199,0);" />
						</g>
					</g>
				</g>
				<g>
					<g>
						<g transform="matrix(-1,1.22465e-16,-1.22465e-16,-1,2140.11,2151.55)">
							<path d="M743.325,474.905C721.843,485.656 694.861,496.827 691.154,498.68C687.126,500.694 682.796,500.989 679.02,501.493C674.079,502.151 642.124,502.442 630.594,503.43C624.381,503.962 620.399,503.863 618.413,503.734C610.902,499.667 585.66,486.243 569.038,480.41C545.953,472.31 502.242,470.608 483.207,505.438C472.545,524.947 474.009,536.909 476.674,543.715C479.656,551.327 484.945,554.903 487.815,556.352C495.308,561.815 538.567,593.128 557.78,602.107C584.697,614.685 575.701,612.242 609.063,619.171C639.232,625.437 682.691,625.598 702.852,626.091C698.667,628.541 695.847,629.841 695.847,629.841L695.426,630.035L695.021,630.26C695.021,630.26 675.559,641.197 660.181,643.904C647.39,646.156 607.472,649.385 588.87,648.433C508.866,636.743 471.746,660.928 452.156,697.533L451.935,697.946L451.746,698.375C442.263,719.896 443.846,733.507 447.878,742.086C453.521,754.091 469.445,759.71 471.88,760.506L472.321,760.736L473.432,761.071C490.068,766.089 513.476,775.259 531.085,777.724C530.91,778.642 530.764,779.551 530.645,780.448C527.39,804.969 543.973,823.126 554.462,827.727L554.808,827.879L555.162,828.009C573.459,834.726 594.12,842.168 614.399,851.751C631.738,859.944 655.26,866.776 667.901,869.364C673.178,870.445 677.082,870.754 678.876,870.63C679.95,870.556 680.9,870.383 681.734,870.149C686.336,878.421 694.108,884.597 705.114,886.914L705.569,887.01L706.031,887.071C717.87,888.639 732.428,889.86 747.568,890.706C742.659,896.437 737.948,902.227 733.514,907.959C715.697,930.993 703.293,952.274 698.72,965.191C697.445,968.791 694.416,974.904 697.072,977.464C745.835,1024.48 806.326,1107.17 824.009,1132.45C850.198,1169.91 847.337,1171.23 854.936,1191.41C865.095,1218.38 880,1280.86 884.834,1312.64C888.17,1334.58 886.755,1402.56 881.617,1441.35L881.556,1441.81L881.46,1442.27C879.143,1453.27 872.967,1461.04 864.695,1465.64C864.929,1466.48 865.102,1467.43 865.176,1468.5C865.3,1470.3 864.991,1474.2 863.91,1479.48C861.322,1492.12 854.49,1515.64 846.297,1532.98C836.714,1553.26 829.272,1573.92 822.555,1592.22L822.425,1592.57L822.273,1592.92C817.672,1603.41 799.515,1619.99 774.994,1616.73C774.097,1616.61 773.188,1616.47 772.27,1616.29C769.805,1633.9 760.635,1657.31 755.617,1673.95L755.282,1675.06L755.052,1675.5C754.256,1677.93 748.637,1693.86 736.632,1699.5C728.053,1703.53 714.442,1705.12 692.921,1695.63L692.492,1695.44L692.079,1695.22C655.474,1675.63 631.289,1638.51 642.979,1558.51C643.931,1539.91 640.702,1499.99 638.45,1487.2C635.743,1471.82 624.806,1452.36 624.806,1452.36L624.581,1451.95L624.387,1451.53C624.387,1451.53 623.087,1448.71 620.637,1444.53C620.144,1464.69 619.983,1508.15 613.717,1538.32C606.788,1571.68 609.232,1562.68 596.653,1589.6C587.674,1608.81 556.361,1652.07 550.898,1659.56C549.449,1662.43 545.873,1667.72 538.261,1670.7C531.455,1673.37 519.493,1674.83 499.984,1664.17C465.154,1645.14 466.856,1601.42 474.956,1578.34C480.789,1561.72 494.213,1536.48 498.28,1528.96C498.409,1526.98 498.508,1523 497.976,1516.79C496.988,1505.26 496.697,1473.3 496.039,1468.36C495.535,1464.58 495.24,1460.25 493.226,1456.23C490.621,1451.01 469.604,1399.81 457.229,1382.55C444.882,1365.33 432.66,1341.53 421.288,1329.5C418.466,1326.52 414.91,1321.06 411.066,1314.22C415.416,1331.5 420.234,1351.51 422.168,1360.02C423.675,1366.65 427.03,1378.38 428.022,1393.77C429.409,1415.27 427.002,1442.08 420.051,1457.46C407.773,1484.62 398.546,1492.5 382.536,1504.22C377.174,1508.15 366.61,1511.49 354.476,1513C338.052,1515.04 318.798,1514.12 308.76,1510.54C298.882,1507.01 294.849,1500.21 294.607,1494.14C293.832,1474.67 296.252,1343.15 295.017,1332.76C294.273,1326.51 293.862,1319.59 291.127,1315.65C283.506,1304.69 242.345,1225.47 237.774,1213.78C235.047,1206.81 233.612,1195.51 233.529,1182.09C233.358,1154.4 238.271,1116.65 242.477,1094.37C252.279,1042.47 282.634,992.698 293.308,971.355C295.785,965.404 295.038,954.833 296.605,945.885C299.432,929.743 320.967,709.298 320.966,709.312C321.679,696.532 341.862,382.229 609.834,216.247L609.928,216.191C829.391,85.625 1076.08,52.819 1301,175.923C1394.44,225.043 1440.17,282.916 1463.28,328.905C1448.94,327.088 1440.01,326.528 1438.07,326.42C1438.08,326.421 1217.64,304.886 1201.49,302.059C1192.55,300.492 1181.97,301.239 1176.02,298.762C1154.68,288.088 1104.91,257.733 1053.01,247.931C1030.73,243.725 992.983,238.812 965.291,238.983C951.866,239.066 940.568,240.501 933.594,243.228C921.904,247.799 842.686,288.96 831.725,296.581C827.791,299.316 820.873,299.727 814.615,300.471C804.225,301.706 672.709,299.286 653.242,300.061C647.165,300.303 640.367,304.336 636.842,314.214C633.26,324.252 632.341,343.506 634.381,359.93C635.887,372.064 639.231,382.628 643.158,387.99C654.884,404 662.76,413.227 689.921,425.505C705.298,432.456 732.105,434.863 753.614,433.476C754.654,433.409 755.678,433.331 756.685,433.243L744.394,444.101C740.547,447.5 738.807,452.693 739.831,457.723L743.325,474.905Z" style="fill:rgb(46,41,78);" />
						</g>
						<g transform="matrix(-1,1.22465e-16,-1.22465e-16,-1,2140.11,2151.55)">
							<path d="M743.325,474.905C721.843,485.656 694.861,496.827 691.154,498.68C687.126,500.694 682.796,500.989 679.02,501.493C674.079,502.151 642.124,502.442 630.594,503.43C624.381,503.962 620.399,503.863 618.413,503.734C610.902,499.667 585.66,486.243 569.038,480.41C545.953,472.31 502.242,470.608 483.207,505.438C472.545,524.947 474.009,536.909 476.674,543.715C479.656,551.327 484.945,554.903 487.815,556.352C495.308,561.815 538.567,593.128 557.78,602.107C584.697,614.685 575.701,612.242 609.063,619.171C639.232,625.437 682.691,625.598 702.852,626.091C698.667,628.541 695.847,629.841 695.847,629.841L695.426,630.035L695.021,630.26C695.021,630.26 675.559,641.197 660.181,643.904C647.39,646.156 607.472,649.385 588.87,648.433C508.866,636.743 471.746,660.928 452.156,697.533L451.935,697.946L451.746,698.375C442.263,719.896 443.846,733.507 447.878,742.086C453.521,754.091 469.445,759.71 471.88,760.506L472.321,760.736L473.432,761.071C490.068,766.089 513.476,775.259 531.085,777.724C530.91,778.642 530.764,779.551 530.645,780.448C527.39,804.969 543.973,823.126 554.462,827.727L554.808,827.879L555.162,828.009C573.459,834.726 594.12,842.168 614.399,851.751C631.738,859.944 655.26,866.776 667.901,869.364C673.178,870.445 677.082,870.754 678.876,870.63C679.95,870.556 680.9,870.383 681.734,870.149C686.336,878.421 694.108,884.597 705.114,886.914L705.569,887.01L706.031,887.071C713.839,888.105 722.831,888.989 732.392,889.713C708.7,918.414 690.591,947.662 687.786,964.32C687.786,964.32 664.804,943.79 637.202,953.237C677.773,952.28 788.99,1103.79 813.952,1139.49C838.937,1175.22 836.202,1176.49 843.452,1195.74C853.402,1222.16 867.968,1283.36 872.702,1314.49C875.949,1335.83 874.452,1401.99 869.452,1439.74C864.452,1463.49 834.452,1463.49 813.452,1447.49C792.452,1431.49 782.202,1402.49 782.952,1382.24C782.946,1366.9 784.11,1324.37 763.702,1270.99C757.484,1254.72 754.202,1248.28 748.952,1244.24C745.857,1241.31 739.372,1244.17 732.202,1246.74C720.253,1251.01 703.118,1255.1 702.202,1254.74C717.1,1260.16 731.638,1261.98 745.869,1260.74C754.463,1271.44 760.654,1283.71 763.869,1296.74C768.147,1314.07 771.839,1350.4 771.536,1364.74C771.202,1398.48 777.146,1421.67 793.869,1442.74C812.761,1466.53 851.037,1470.83 852.619,1468.57C854.739,1468.81 846.297,1504.26 835.202,1527.74C825.454,1548.37 817.869,1569.38 811.036,1587.99C805.5,1600.61 771.952,1623.75 737.202,1576.4C723.616,1557.89 728.952,1507.32 735.286,1471.65C739.619,1445.99 738.369,1434.32 735.369,1426.32C732.369,1418.32 708.334,1360.96 698.202,1342.74C687.538,1323.56 657.551,1293.96 657.202,1296.4C656.074,1298.28 606.482,1308.06 596.869,1308.74C596.869,1308.74 626.536,1315.07 639.202,1313.07C655.869,1311.07 666.202,1319.07 672.202,1327.4C678.202,1335.74 696.536,1363.07 696.536,1363.07C696.536,1363.07 705.536,1378.4 706.536,1383.74C707.536,1389.07 726.619,1433.99 726.619,1438.65C726.619,1443.32 727.536,1454.07 722.536,1470.74C717.536,1487.4 720.621,1552.99 721.202,1562.07C722.203,1577.71 742.784,1600.01 760.619,1608.82C760.291,1625.87 749.327,1652.31 743.869,1670.4C741.991,1674 739.286,1702.65 697.869,1684.4C664.702,1666.65 644.455,1632.41 655.202,1559.74C656.286,1540.65 652.898,1498.49 650.536,1485.07C647.535,1468.02 635.536,1446.4 635.536,1446.4C635.536,1446.4 627.869,1429.74 614.536,1416.07C601.202,1402.4 578.202,1367.07 564.536,1343.07C550.869,1319.07 543.202,1318.07 543.202,1318.07L511.869,1324.74L538.202,1333.07C538.202,1333.07 584.536,1395.74 594.869,1404.74C605.202,1413.74 609.202,1422.4 608.536,1438.74C607.869,1455.07 608.452,1503.32 601.702,1535.82C595.138,1567.43 597.452,1558.9 585.536,1584.4C575.967,1604.88 540.202,1653.4 540.202,1653.4C540.202,1653.4 534.535,1669.07 505.869,1653.4C477.202,1637.74 479.869,1601.4 486.535,1582.4C493.202,1563.4 510.202,1532.74 510.202,1532.74C510.202,1532.74 511.202,1527.4 510.202,1515.74C509.202,1504.07 508.869,1471.74 508.202,1466.74C507.535,1461.74 506.869,1456.07 504.202,1450.74C501.535,1445.4 479.869,1393.07 467.202,1375.4C454.535,1357.74 441.869,1333.4 430.202,1321.07C418.535,1308.74 394.535,1248.74 388.869,1240.4C383.202,1232.07 341.535,1235.4 318.535,1218.07C295.535,1200.74 339.869,1244.74 371.869,1248.74C403.869,1252.74 388.869,1280.74 391.869,1289.74C394.869,1298.74 406.869,1348.07 410.202,1362.74C411.624,1368.99 414.84,1380.04 415.776,1394.55C417.035,1414.08 415.178,1438.45 408.869,1452.4C397.869,1476.74 389.63,1483.82 375.285,1494.32C362.035,1504.02 307.318,1504.92 306.869,1493.65C306.089,1474.07 308.445,1341.77 307.202,1331.32C306.208,1322.95 304.858,1313.91 301.202,1308.65C293.772,1297.96 253.659,1220.71 249.202,1209.32C241.381,1189.32 248.688,1127.62 254.536,1096.65C265.671,1037.68 297.102,978.717 327.869,948.982C321.77,946.773 314.746,947.802 306.869,951.815L333.202,710.293C333.202,710.293 348.202,392.737 616.202,226.737C831.839,98.446 1074.2,65.737 1295.2,186.737C1380.77,231.701 1424.98,284.176 1448.4,327.242C1442.76,326.703 1439.21,326.484 1438.07,326.42C1438.08,326.421 1217.64,304.886 1201.49,302.059C1192.55,300.492 1181.97,301.239 1176.02,298.762C1154.68,288.088 1104.91,257.733 1053.01,247.931C1030.73,243.725 992.983,238.812 965.291,238.983C951.866,239.066 940.568,240.501 933.594,243.228C921.904,247.799 842.686,288.96 831.725,296.581C827.791,299.316 820.873,299.727 814.615,300.471C804.225,301.706 672.709,299.286 653.242,300.061C647.165,300.303 640.367,304.336 636.842,314.214C633.26,324.252 632.341,343.506 634.381,359.93C635.887,372.064 639.231,382.628 643.158,387.99C654.884,404 662.76,413.227 689.921,425.505C705.298,432.456 732.105,434.863 753.614,433.476C754.654,433.409 755.678,433.331 756.685,433.243L744.394,444.101C740.547,447.5 738.807,452.693 739.831,457.723L743.325,474.905ZM475.702,974.903C466.082,1030.61 478.988,1074.31 522.702,1101.57L514.369,1108.9C456.5,1076.39 446.597,1004.52 475.702,974.903Z" style="fill:rgb(108,191,227);" />
						</g>
					</g>
					<g>
						<path d="M1568.04,840.024C1567.64,842.045 1567.73,844.485 1568.77,847.35C1569.73,850.003 1575.02,858.809 1581.25,868.849C1581.05,868.867 1580.86,868.878 1580.67,868.881C1573.99,868.999 1509.92,870.549 1509.92,870.549C1505.73,870.651 1501.88,872.886 1499.71,876.477C1489.48,893.442 1479.05,910.475 1469.83,927.099C1466.66,930.161 1466.3,934.003 1466.54,936.929C1466.76,939.547 1484.14,974.919 1485.34,977.596C1486.84,980.928 1487.76,983.383 1492.71,986.515C1494.89,987.902 1502.32,990.362 1512.34,992.329C1531.99,996.187 1562.87,999.748 1573.62,997.913C1574.42,997.776 1575.33,997.658 1576.32,997.558C1576.25,998.218 1576.05,998.852 1576.19,999.396C1580.42,1015.08 1592.48,1036.57 1594.48,1039.78C1603.91,1054.93 1609.23,1066.5 1625.49,1067.65C1634.12,1068.26 1643.27,1066.57 1649.31,1064.17C1653.31,1062.58 1656.27,1060.52 1658.05,1058.67C1661.2,1055.4 1692.44,1025.36 1704.84,1015.28C1708.45,1017.51 1714.19,1020.57 1720.29,1022.6C1728.73,1025.41 1743.43,1028.36 1758.29,1025.14C1774.72,1021.59 1794.32,1006.77 1796.45,980.673C1797.76,964.631 1790.31,950.881 1784.89,942.302C1783.68,940.399 1769.53,914.754 1763.74,905.815C1767.58,890.571 1772.21,871.073 1772.16,861.417C1772.09,848.116 1768.83,844.322 1766.87,840.71C1766.6,840.229 1755.24,819.075 1752.41,813.929C1745.99,802.277 1743.86,796.334 1733.04,790.293C1721.01,783.574 1706.38,783.93 1695.66,795.614C1693.38,798.092 1677.7,814.643 1671.42,820.556C1662.9,812.31 1656.39,801.092 1643.86,781.38C1633.12,764.468 1600.21,739.637 1600.21,739.637C1597.55,737.655 1594.19,736.838 1590.91,737.372C1587.64,737.906 1584.72,739.746 1582.82,742.472C1570.74,759.821 1560.29,777.17 1551.06,794.518C1549.09,796.657 1546.35,801.024 1548.77,807.683C1550.07,811.269 1559.27,826.1 1568.04,840.024ZM1576.89,854.194L1576.91,854.197L1576.89,854.191L1576.89,854.194ZM1574.56,853.19C1575.23,853.567 1575.93,853.876 1576.65,854.116C1576.23,853.978 1575.78,853.804 1575.32,853.585C1575.07,853.467 1574.81,853.337 1574.56,853.19C1574.33,853.063 1574.11,852.928 1573.89,852.786L1574.56,853.19ZM1556.89,814.527L1556.91,814.53L1556.89,814.525L1556.89,814.527ZM1554.56,813.524C1555.23,813.9 1555.93,814.21 1556.65,814.45C1556.23,814.312 1555.78,814.137 1555.32,813.918C1555.07,813.8 1554.81,813.67 1554.56,813.524C1554.33,813.397 1554.11,813.262 1553.89,813.119L1554.56,813.524Z" style="fill:rgb(46,41,78);" />
						<path d="M1682.22,962.484C1677.59,963.806 1633.08,1006.49 1629.22,1010.48C1623.28,1016.63 1587.78,1021.94 1588.46,999.769C1588.77,989.563 1597.98,961.198 1598.98,957.198C1599.98,953.198 1597.51,950.15 1591.17,947.817C1584.84,945.484 1561.42,944.466 1551.55,946.15C1535.72,948.853 1472.86,938.066 1479.22,935.484C1488.68,918.218 1499.56,900.481 1510.22,882.817C1510.22,882.817 1574.21,881.268 1580.89,881.15C1593.15,880.934 1603.23,874.414 1594.89,859.817C1590.36,851.883 1556.05,799.903 1560.55,802.817C1569.88,785.039 1580.51,767.261 1592.89,749.484C1592.89,749.484 1623.56,772.294 1633.51,787.96C1648.34,811.308 1655.55,823.341 1666.27,832.436C1670.97,836.476 1672.93,834.865 1676.27,832.531C1679.6,830.198 1701.87,806.989 1704.7,803.912C1717.51,789.958 1739.79,804.15 1739.89,821.817C1739.97,837.487 1727.22,879.626 1726.55,885.293C1725.89,890.96 1724.08,895.674 1727.08,897.007C1730.08,898.341 1766.64,910.346 1764.22,940.007C1762.62,959.597 1748.03,970.817 1735.7,973.484C1723.36,976.15 1711.17,973.626 1704.17,971.293C1697.17,968.96 1690.72,965.056 1689.22,963.817C1686.29,961.394 1682.22,962.484 1682.22,962.484Z" style="fill:rgb(255,199,0);" />
					</g>
				</g>
			</g>
			<g transform="matrix(1,0,0,1,258.426,120.99)">
				<g transform="matrix(0.725916,0,0,0.806597,0,0)">
					<path d="M1025.45,952.671C1017.31,955.443 1009.52,958.946 1002.16,963.096C1001.02,961.785 999.61,960.699 997.991,959.923L928.122,926.424C923.018,923.976 916.917,925.109 913.03,929.225C909.144,933.341 908.363,939.496 911.099,944.452L947.75,1010.85C948.513,1012.23 949.508,1013.44 950.676,1014.43C947.219,1020.58 944.25,1027.02 941.818,1033.71C939.83,1033.39 937.762,1033.54 935.777,1034.18L841.349,1064.62C835.964,1066.36 832.317,1071.37 832.327,1077.03C832.336,1082.69 835.999,1087.69 841.39,1089.41L935.327,1119.36C937.23,1119.96 939.209,1120.11 941.12,1119.84C943.49,1126.7 946.425,1133.32 949.871,1139.64C948.638,1140.66 947.591,1141.92 946.798,1143.37L911.077,1208.61C908.359,1213.57 909.16,1219.73 913.06,1223.83C916.96,1227.93 923.063,1229.04 928.16,1226.58L995.699,1193.93C997.218,1193.2 998.554,1192.19 999.653,1190.98C1007.89,1195.86 1016.7,1199.91 1025.97,1203.02C1025.76,1204.83 1025.93,1206.68 1026.51,1208.47L1057.95,1306.01C1059.69,1311.39 1064.71,1315.04 1070.37,1315.03C1076.02,1315.02 1081.03,1311.36 1082.75,1305.96L1113.77,1208.64C1114.33,1206.9 1114.5,1205.09 1114.31,1203.33C1123.83,1200.2 1132.87,1196.09 1141.32,1191.11C1142.42,1192.33 1143.76,1193.34 1145.29,1194.08L1212.53,1226.58C1217.62,1229.04 1223.73,1227.93 1227.63,1223.83C1231.53,1219.73 1232.33,1213.57 1229.61,1208.61L1194.11,1143.78C1193.33,1142.34 1192.29,1141.09 1191.08,1140.07C1194.65,1133.58 1197.69,1126.75 1200.12,1119.67C1202.03,1119.94 1204,1119.79 1205.9,1119.18L1299.3,1089.41C1304.69,1087.69 1308.35,1082.69 1308.36,1077.03C1308.37,1071.37 1304.72,1066.36 1299.34,1064.62L1205.45,1034.35C1203.48,1033.71 1201.41,1033.57 1199.43,1033.88C1196.93,1026.98 1193.86,1020.33 1190.27,1014C1191.42,1013.01 1192.4,1011.82 1193.16,1010.45L1229.59,944.452C1232.32,939.496 1231.54,933.341 1227.66,929.225C1223.77,925.109 1217.67,923.976 1212.57,926.424L1142.99,959.781C1141.37,960.56 1139.95,961.652 1138.81,962.971C1131.24,958.72 1123.21,955.155 1114.82,952.362C1115.02,950.586 1114.85,948.76 1114.29,946.999L1082.75,848.057C1081.03,842.666 1076.02,839.003 1070.37,838.993C1064.71,838.984 1059.69,842.631 1057.95,848.016L1025.98,947.177C1025.4,948.98 1025.23,950.853 1025.45,952.671Z" style="fill:rgb(46,41,78);" />
				</g>
				<g transform="matrix(0.725916,0,0,0.806597,0,0)">
					<path d="M1038.89,1204.47C1049.07,1206.85 1059.68,1208.11 1070.59,1208.11C1081.18,1208.11 1091.49,1206.92 1101.37,1204.68L1070.34,1302.01L1038.89,1204.47ZM1218.19,1214.86L1150.95,1182.36C1163.35,1173.43 1174.1,1162.48 1182.69,1150.03L1218.19,1214.86ZM958.215,1149.62C966.809,1162.18 977.589,1173.21 990.034,1182.21L922.495,1214.86L958.215,1149.62ZM1070.59,958.26C1138.76,958.26 1194.09,1011.81 1194.09,1077.76C1194.09,1143.71 1138.76,1197.26 1070.59,1197.26C1002.43,1197.26 947.094,1143.71 947.094,1077.76C947.094,1011.81 1002.43,958.26 1070.59,958.26ZM939.772,1046.57C937.23,1056.57 935.882,1067.01 935.882,1077.76C935.882,1087.8 937.057,1097.57 939.281,1106.95L845.344,1077.01L939.772,1046.57ZM1295.34,1077.01L1201.95,1106.78C1204.15,1097.44 1205.31,1087.73 1205.31,1077.76C1205.31,1067.07 1203.97,1056.68 1201.46,1046.74L1295.34,1077.01ZM992.364,971.66C979.388,980.637 968.125,991.787 959.146,1004.56L922.495,938.161L992.364,971.66ZM1181.76,1004.16C1172.78,991.485 1161.54,980.424 1148.62,971.519L1218.19,938.161L1181.76,1004.16ZM1101.88,950.953C1091.85,948.638 1081.37,947.412 1070.59,947.412C1059.49,947.412 1048.69,948.716 1038.37,951.171L1070.34,852.01L1101.88,950.953Z" style="fill:rgb(255,199,0);" />
				</g>
			</g>
		</g>
	</g>
</svg>
