<?xml version="1.0" encoding="UTF-8" standalone="no"?>
<!DOCTYPE svg PUBLIC "-//W3C//DTD SVG 1.1//EN" "http://www.w3.org/Graphics/SVG/1.1/DTD/svg11.dtd">
<svg width="100%" height="100%" viewBox="0 0 800 380" version="1.1" xmlns="http://www.w3.org/2000/svg" xmlns:xlink="http://www.w3.org/1999/xlink" xml:space="preserve" xmlns:serif="http://www.serif.com/" style="fill-rule:evenodd;clip-rule:evenodd;stroke-linejoin:round;stroke-miterlimit:2;">
	<path d="M680.391,53.954l0.972,-12.148l29.967,20.942l-32.88,15.452l0.968,-12.101c-30.519,-2.19 -198.991,-13.359 -285.93,0.303c-97.9,15.385 -296.485,92.355 -296.485,92.355c-3.019,1.169 -6.379,-0.442 -7.499,-3.596c-1.119,-3.154 0.423,-6.664 3.442,-7.833c0,0 200.148,-77.475 298.806,-92.979c87.861,-13.807 258.255,-2.563 288.639,-0.395Z" style="fill:#f00;" />
	<path d="M120.764,190.28c33.371,13.312 203.676,80.202 292.149,94.743c96.172,15.806 292.1,-0.057 292.1,-0.057c3.226,-0.26 6.048,2.251 6.299,5.605c0.25,3.353 -2.166,6.287 -5.392,6.548c0,-0 -197.765,15.897 -294.839,-0.057c-88.985,-14.625 -260.12,-81.707 -294.305,-95.321l-3.718,10.685l-23.823,-28.377l35.774,-5.967l-4.245,12.198Z" style="fill:#1bb300;" />
</svg>
